<svg version="1.1" xmlns="http://www.w3.org/2000/svg" xmlns:xlink="http://www.w3.org/1999/xlink" width="188" height="132"><defs/><g><text fill="#eeeeee" stroke="none" font-family="Arial" font-size="24px" font-style="normal" font-weight="normal" text-decoration="none" x="0" y="0">UNREGISTERED</text><text fill="#eeeeee" stroke="none" font-family="Arial" font-size="24px" font-style="normal" font-weight="normal" text-decoration="none" x="0" y="30">UNREGISTERED</text><text fill="#eeeeee" stroke="none" font-family="Arial" font-size="24px" font-style="normal" font-weight="normal" text-decoration="none" x="0" y="60">UNREGISTERED</text><text fill="#eeeeee" stroke="none" font-family="Arial" font-size="24px" font-style="normal" font-weight="normal" text-decoration="none" x="0" y="90">UNREGISTERED</text><text fill="#eeeeee" stroke="none" font-family="Arial" font-size="24px" font-style="normal" font-weight="normal" text-decoration="none" x="0" y="120">UNREGISTERED</text><g transform="translate(-70,-926) scale(1,1)"><rect fill="#C0C0C0" stroke="none" x="87" y="943" width="168" height="112" opacity="0.2"/></g><g transform="translate(-70,-926) scale(1,1)"><rect fill="#ffffff" stroke="none" x="80" y="936" width="168" height="112"/></g><g transform="translate(-70,-926) scale(1,1)"><path fill="none" stroke="#000000" d="M 80 936 L 248 936 L 248 1048 L 80 1048 L 80 936 Z Z" stroke-miterlimit="10"/></g><g transform="translate(-70,-926) scale(1,1)"><path fill="none" stroke="#000000" d="M 80 961 L 248 961" stroke-miterlimit="10"/></g><g transform="translate(-70,-926) scale(1,1)"><path fill="none" stroke="#000000" d="M 80 984 L 248 984" stroke-miterlimit="10"/></g><g transform="translate(-70,-926) scale(1,1)"><g><path fill="none" stroke="none"/><text fill="#000000" stroke="none" font-family="Arial" font-size="13px" font-style="normal" font-weight="bold" text-decoration="none" x="136.8955078125" y="955.5">Singleton</text></g></g><g transform="translate(-70,-926) scale(1,1)"><g><path fill="none" stroke="none"/><text fill="#000000" stroke="none" font-family="Arial" font-size="13px" font-style="normal" font-weight="normal" text-decoration="none" x="85" y="978.5">-instance: Singleton</text><path fill="none" stroke="#000000" d="M 85 978.5 L 199.181640625 978.5" stroke-miterlimit="10"/></g></g><g transform="translate(-70,-926) scale(1,1)"><g><path fill="none" stroke="none"/><text fill="#000000" stroke="none" font-family="Arial" font-size="13px" font-style="normal" font-weight="normal" text-decoration="none" x="85" y="1001.5">-constructor()</text></g></g><g transform="translate(-70,-926) scale(1,1)"><g><path fill="none" stroke="none"/><text fill="#000000" stroke="none" font-family="Arial" font-size="13px" font-style="normal" font-weight="normal" text-decoration="none" x="85" y="1016.5">+getInstance(): Singleton</text><path fill="none" stroke="#000000" d="M 85 1016.5 L 229.89794921875 1016.5" stroke-miterlimit="10"/></g></g></g></svg>
